<svg width="80" height="25" viewBox="0 0 80 25" fill="none" xmlns="http://www.w3.org/2000/svg">
<rect width="80" height="25" rx="12.5" fill="#5C0FDC"/>
<path fill-rule="evenodd" clip-rule="evenodd" d="M9.53373 17.1204C9.94076 18.2784 10.4808 19.2619 11.1539 20.0707C11.4334 20.4065 11.8588 20.575 12.2957 20.575H13.7751C13.8666 20.575 13.9408 20.5008 13.9408 20.4093V20.4093C13.9408 20.3678 13.9252 20.3278 13.8972 20.297C13.0001 19.3091 12.3031 18.1447 11.8061 16.8037C11.3012 15.441 11.0487 14.0256 11.0487 12.5574C11.0487 11.0795 11.3103 9.64491 11.8337 8.25345C12.3487 6.87472 13.0771 5.69113 14.0189 4.70271C14.0482 4.67192 14.0648 4.63111 14.0648 4.58859V4.58859C14.0648 4.498 13.9913 4.42456 13.9007 4.42456H12.4126C11.988 4.42456 11.5735 4.5828 11.293 4.9016C10.5664 5.72728 9.98912 6.739 9.56128 7.93678C9.04712 9.36661 8.79004 10.9068 8.79004 12.5574C8.79004 14.1887 9.03794 15.7097 9.53373 17.1204ZM70.4643 7.87928C70.0573 6.7212 69.5172 5.73775 68.8441 4.92892C68.5646 4.5931 68.1392 4.42464 67.7023 4.42464L66.2229 4.42464C66.1314 4.42464 66.0572 4.49882 66.0572 4.59033V4.59033C66.0572 4.63189 66.0729 4.67189 66.1008 4.70265C66.9979 5.69051 67.695 6.85494 68.1919 8.19596C68.6969 9.55862 68.9494 10.9741 68.9494 12.4423C68.9494 13.9201 68.6877 15.3547 68.1644 16.7462C67.6494 18.1249 66.921 19.3085 65.9792 20.2969C65.9498 20.3277 65.9333 20.3685 65.9333 20.4111V20.4111C65.9333 20.5016 66.0067 20.5751 66.0973 20.5751H67.5854C68.0101 20.5751 68.4245 20.4168 68.7051 20.098C69.4317 19.2724 70.0089 18.2606 70.4368 17.0629C70.9509 15.633 71.208 14.0928 71.208 12.4423C71.208 10.8109 70.9601 9.28993 70.4643 7.87928ZM55.7123 18.3773C58.9152 18.3773 61.5365 15.7596 61.5365 12.4999C61.5365 9.24016 58.9152 6.62248 55.7123 6.62248C52.5094 6.62248 49.8882 9.24016 49.8882 12.4999C49.8882 15.7596 52.5094 18.3773 55.7123 18.3773ZM55.7123 20.5751C60.1427 20.5751 63.7343 16.9597 63.7343 12.4999C63.7343 8.04008 60.1427 4.42468 55.7123 4.42468C51.2819 4.42468 47.6903 8.04008 47.6903 12.4999C47.6903 16.9597 51.2819 20.5751 55.7123 20.5751ZM41.0971 12.4999C41.0971 15.7596 38.4759 18.3773 35.273 18.3773C32.07 18.3773 29.4488 15.7596 29.4488 12.4999C29.4488 9.24013 32.07 6.62245 35.273 6.62245C38.4759 6.62245 41.0971 9.24013 41.0971 12.4999ZM43.2949 12.4999C43.2949 16.9597 39.7034 20.5751 35.273 20.5751C30.8425 20.5751 27.251 16.9597 27.251 12.4999C27.251 8.04005 30.8425 4.42465 35.273 4.42465C39.7034 4.42465 43.2949 8.04005 43.2949 12.4999Z" fill="white" fill-opacity="0.8"/>
</svg>
