<svg width="56" height="56" viewBox="0 0 56 56" fill="none" xmlns="http://www.w3.org/2000/svg">
<circle cx="28" cy="28" r="28" fill="#5C0FDC"/>
<path d="M34.2922 38.336L33.4389 31.504C33.3179 30.5363 32.8476 29.6461 32.1164 29.0008C31.3852 28.3555 30.4434 27.9996 29.4682 28H26.5295C25.5548 28.0003 24.6136 28.3565 23.883 29.0017C23.1523 29.6469 22.6824 30.5368 22.5615 31.504L21.7069 38.336C21.66 38.7114 21.6934 39.0924 21.8051 39.4538C21.9168 39.8152 22.104 40.1487 22.3545 40.4322C22.6049 40.7157 22.9128 40.9427 23.2577 41.098C23.6026 41.2534 23.9766 41.3336 24.3549 41.3333H31.6455C32.0237 41.3334 32.3975 41.2531 32.7423 41.0976C33.087 40.9422 33.3947 40.7152 33.645 40.4317C33.8953 40.1483 34.0825 39.8148 34.1941 39.4535C34.3056 39.0922 34.3391 38.7112 34.2922 38.336V38.336Z" stroke="white" stroke-opacity="0.8" stroke-width="2" stroke-linecap="round" stroke-linejoin="round"/>
<path d="M28 22.6667C30.2091 22.6667 32 20.8758 32 18.6667C32 16.4575 30.2091 14.6667 28 14.6667C25.7909 14.6667 24 16.4575 24 18.6667C24 20.8758 25.7909 22.6667 28 22.6667Z" stroke="white" stroke-opacity="0.8" stroke-width="2"/>
<path d="M17.3334 26.6667C18.8062 26.6667 20.0001 25.4728 20.0001 24C20.0001 22.5273 18.8062 21.3334 17.3334 21.3334C15.8607 21.3334 14.6667 22.5273 14.6667 24C14.6667 25.4728 15.8607 26.6667 17.3334 26.6667Z" stroke="white" stroke-opacity="0.8" stroke-width="2"/>
<path d="M38.6667 26.6667C40.1394 26.6667 41.3333 25.4728 41.3333 24C41.3333 22.5273 40.1394 21.3334 38.6667 21.3334C37.1939 21.3334 36 22.5273 36 24C36 25.4728 37.1939 26.6667 38.6667 26.6667Z" stroke="white" stroke-opacity="0.8" stroke-width="2"/>
<path d="M17.3334 30.6667H16.9254C16.2942 30.6666 15.6834 30.8905 15.2017 31.2984C14.72 31.7064 14.3986 32.272 14.2948 32.8947L13.8508 35.5614C13.7871 35.9434 13.8073 36.3348 13.9102 36.7082C14.0131 37.0816 14.196 37.4282 14.4464 37.7237C14.6968 38.0193 15.0085 38.2567 15.36 38.4196C15.7114 38.5824 16.0941 38.6667 16.4814 38.6667H21.3334M38.6668 30.6667H39.0748C39.706 30.6666 40.3168 30.8905 40.7985 31.2984C41.2802 31.7064 41.6016 32.272 41.7054 32.8947L42.1494 35.5614C42.2132 35.9434 42.1929 36.3348 42.09 36.7082C41.9872 37.0816 41.8042 37.4282 41.5538 37.7237C41.3034 38.0193 40.9917 38.2567 40.6403 38.4196C40.2888 38.5824 39.9061 38.6667 39.5188 38.6667H34.6668" stroke="white" stroke-opacity="0.8" stroke-width="2" stroke-linecap="round" stroke-linejoin="round"/>
</svg>
