<svg width="24" height="24" viewBox="0 0 24 24" fill="none" xmlns="http://www.w3.org/2000/svg">
<circle cx="12" cy="12" r="11.5" transform="rotate(-180 12 12)" stroke="white" stroke-opacity="0.2"/>
<path d="M17.25 11.25H8.355L11.0775 7.97999C11.2048 7.82683 11.2661 7.62937 11.2478 7.43105C11.2295 7.23273 11.1332 7.0498 10.98 6.92249C10.8268 6.79519 10.6294 6.73394 10.4311 6.75223C10.2327 6.77051 10.0498 6.86683 9.9225 7.01999L6.1725 11.52C6.14727 11.5558 6.12471 11.5934 6.105 11.6325C6.105 11.67 6.105 11.6925 6.0525 11.73C6.01851 11.816 6.00071 11.9075 6 12C6.00071 12.0925 6.01851 12.184 6.0525 12.27C6.0525 12.3075 6.0525 12.33 6.105 12.3675C6.12471 12.4066 6.14727 12.4442 6.1725 12.48L9.9225 16.98C9.99302 17.0647 10.0813 17.1327 10.1811 17.1794C10.2809 17.2261 10.3898 17.2502 10.5 17.25C10.6752 17.2503 10.8451 17.1893 10.98 17.0775C11.0559 17.0145 11.1187 16.9372 11.1647 16.8499C11.2107 16.7627 11.2391 16.6672 11.2482 16.569C11.2572 16.4707 11.2468 16.3717 11.2175 16.2775C11.1882 16.1833 11.1407 16.0958 11.0775 16.02L8.355 12.75H17.25C17.4489 12.75 17.6397 12.671 17.7803 12.5303C17.921 12.3897 18 12.1989 18 12C18 11.8011 17.921 11.6103 17.7803 11.4697C17.6397 11.329 17.4489 11.25 17.25 11.25Z" fill="white" fill-opacity="0.2"/>
</svg>
