<svg width="24" height="24" viewBox="0 0 24 24" fill="none" xmlns="http://www.w3.org/2000/svg">
<circle cx="12" cy="12" r="11.5" stroke="white" stroke-opacity="0.2"/>
<path d="M6.75 12.75L15.645 12.75L12.9225 16.02C12.7952 16.1732 12.7339 16.3706 12.7522 16.569C12.7705 16.7673 12.8668 16.9502 13.02 17.0775C13.1732 17.2048 13.3706 17.2661 13.5689 17.2478C13.7673 17.2295 13.9502 17.1332 14.0775 16.98L17.8275 12.48C17.8527 12.4442 17.8753 12.4066 17.895 12.3675C17.895 12.33 17.895 12.3075 17.9475 12.27C17.9815 12.184 17.9993 12.0925 18 12C17.9993 11.9076 17.9815 11.816 17.9475 11.73C17.9475 11.6925 17.9475 11.67 17.895 11.6325C17.8753 11.5934 17.8527 11.5558 17.8275 11.52L14.0775 7.02002C14.007 6.93536 13.9187 6.86728 13.8189 6.82061C13.7191 6.77394 13.6102 6.74984 13.5 6.75002C13.3248 6.74968 13.1549 6.81071 13.02 6.92252C12.9441 6.98548 12.8813 7.06281 12.8353 7.15007C12.7893 7.23733 12.7609 7.33281 12.7518 7.43104C12.7428 7.52928 12.7532 7.62833 12.7825 7.72253C12.8118 7.81674 12.8593 7.90424 12.9225 7.98002L15.645 11.25L6.75 11.25C6.55109 11.25 6.36032 11.329 6.21967 11.4697C6.07902 11.6103 6 11.8011 6 12C6 12.1989 6.07902 12.3897 6.21967 12.5304C6.36032 12.671 6.55109 12.75 6.75 12.75Z" fill="white" fill-opacity="0.2"/>
</svg>
