<svg width="56" height="56" viewBox="0 0 56 56" fill="none" xmlns="http://www.w3.org/2000/svg">
<circle cx="28" cy="28" r="28" fill="#5C0FDC"/>
<path d="M14.6667 21.3333C14.6667 20.626 14.9477 19.9478 15.4478 19.4477C15.9479 18.9476 16.6262 18.6666 17.3334 18.6666H38.6667C39.374 18.6666 40.0523 18.9476 40.5524 19.4477C41.0525 19.9478 41.3334 20.626 41.3334 21.3333V34.6666C41.3334 35.3739 41.0525 36.0521 40.5524 36.5522C40.0523 37.0523 39.374 37.3333 38.6667 37.3333H17.3334C16.6262 37.3333 15.9479 37.0523 15.4478 36.5522C14.9477 36.0521 14.6667 35.3739 14.6667 34.6666V21.3333Z" stroke="white" stroke-opacity="0.8" stroke-width="2" stroke-linecap="round" stroke-linejoin="round"/>
<path d="M28 32C30.2091 32 32 30.2091 32 28C32 25.7909 30.2091 24 28 24C25.7909 24 24 25.7909 24 28C24 30.2091 25.7909 32 28 32Z" stroke="white" stroke-opacity="0.8" stroke-width="2" stroke-linecap="round" stroke-linejoin="round"/>
<path d="M14.6667 24C16.0812 24 17.4378 23.4381 18.438 22.4379C19.4382 21.4377 20.0001 20.0811 20.0001 18.6666M36.0001 37.3333C36.0001 35.9188 36.562 34.5623 37.5622 33.5621C38.5624 32.5619 39.9189 32 41.3334 32" stroke="white" stroke-opacity="0.8" stroke-width="2" stroke-linecap="round" stroke-linejoin="round"/>
</svg>
